<svg xmlns="http://www.w3.org/2000/svg" xmlns:xlink="http://www.w3.org/1999/xlink" style="margin:auto;background:#f1f2f3;display:block;z-index:1;position:relative" width="1920" height="969" preserveAspectRatio="xMidYMid" viewBox="0 0 1920 969">
<g transform="translate(960,484.5) scale(1,1) translate(-960,-484.5)"><path id="path0" d="M 1280.9778256313805 346.1729153877074
c 0 26.047854219393862 -6.373411138787859 7.481830467272705 -13.855241606060565 7.481830467272705
S 1253.2673424192592 372.22076960710126 1253.2673424192592 346.1729153877074
s 6.373411138787859 -7.481830467272705 13.855241606060565 -7.481830467272705
S 1280.9778256313805 320.12506116831355 1280.9778256313805 346.1729153877074
z" fill="none" stroke="none"></path>
<circle cx="0" cy="0" r="7.479723828089862" fill="#06628d">
  <animateMotion begin="-9.690333659353197s" dur="10s" repeatCount="indefinite">
    <mpath xlink:href="#path0"></mpath>
  </animateMotion>
</circle><path id="path1" d="M 744.0229679791237 96.72787146219608
c 0 34.38562823379532 -8.413504780609493 9.876723003324189 -18.29022778393368 9.876723003324189
S 707.4425124112563 131.1134996959914 707.4425124112563 96.72787146219608
s 8.413504780609493 -9.876723003324189 18.29022778393368 -9.876723003324189
S 744.0229679791237 62.342243228400754 744.0229679791237 96.72787146219608
z" fill="none" stroke="none"></path>
<circle cx="0" cy="0" r="5.042397358302094" fill="#2aa7c9">
  <animateMotion begin="-5.1422667283480505s" dur="10s" repeatCount="indefinite">
    <mpath xlink:href="#path1"></mpath>
  </animateMotion>
</circle><path id="path2" d="M 1272.348457777813 877.7190164529727
c 0 37.091307232118965 -9.075532620624852 10.653886119863957 -19.72941874048881 10.653886119863957
S 1232.8896202968353 914.8103236850917 1232.8896202968353 877.7190164529727
s 9.075532620624852 -10.653886119863957 19.72941874048881 -10.653886119863957
S 1272.348457777813 840.6277092208537 1272.348457777813 877.7190164529727
z" fill="none" stroke="none"></path>
<circle cx="0" cy="0" r="5.09476988366498" fill="#06628d">
  <animateMotion begin="-5.250222429816076s" dur="10s" repeatCount="indefinite">
    <mpath xlink:href="#path2"></mpath>
  </animateMotion>
</circle><path id="path3" d="M 190.16785806222023 197.45546060282402
c 0 25.52776700881927 -6.246155757477055 7.332443715299152 -13.578599472776208 7.332443715299152
S 163.01065911666782 222.9832276116433 163.01065911666782 197.45546060282402
s 6.246155757477055 -7.332443715299152 13.578599472776208 -7.332443715299152
S 190.16785806222023 171.92769359400475 190.16785806222023 197.45546060282402
z" fill="none" stroke="none"></path>
<circle cx="0" cy="0" r="7.49726087842686" fill="#2aa7c9">
  <animateMotion begin="-8.562746045437013s" dur="10s" repeatCount="indefinite">
    <mpath xlink:href="#path3"></mpath>
  </animateMotion>
</circle><path id="path4" d="M 51.8029701623516 715.4171270944881
c 0 27.796572927939152 -6.801289120665961 7.984122011216565 -14.785411131882526 7.984122011216565
S 22.232147898586547 743.2137000224272 22.232147898586547 715.4171270944881
s 6.801289120665961 -7.984122011216565 14.785411131882526 -7.984122011216565
S 51.8029701623516 687.620554166549 51.8029701623516 715.4171270944881
z" fill="none" stroke="none"></path>
<circle cx="0" cy="0" r="5.08954778222094" fill="#2aa7c9">
  <animateMotion begin="-7.136491608419464s" dur="10s" repeatCount="indefinite">
    <mpath xlink:href="#path4"></mpath>
  </animateMotion>
</circle><path id="path5" d="M 903.3024535673552 286.04084846276555
c 0 22.176449094676332 -5.426152438059102 6.369831122938947 -11.79598356099805 6.369831122938947
S 879.7104864453592 308.2172975574419 879.7104864453592 286.04084846276555
s 5.426152438059102 -6.369831122938947 11.79598356099805 -6.369831122938947
S 903.3024535673552 263.8643993680892 903.3024535673552 286.04084846276555
z" fill="none" stroke="none"></path>
<circle cx="0" cy="0" r="6.470334008100017" fill="#2aa7c9">
  <animateMotion begin="-2.092831179064689s" dur="10s" repeatCount="indefinite">
    <mpath xlink:href="#path5"></mpath>
  </animateMotion>
</circle><path id="path6" d="M 1309.0311891296994 288.02877349319186
c 0 25.63187368779078 -6.271628668289233 7.362346697556926 -13.633975365846158 7.362346697556926
S 1281.763238398007 313.66064718098266 1281.763238398007 288.02877349319186
s 6.271628668289233 -7.362346697556926 13.633975365846158 -7.362346697556926
S 1309.0311891296994 262.39689980540106 1309.0311891296994 288.02877349319186
z" fill="none" stroke="none"></path>
<circle cx="0" cy="0" r="7.240769293317609" fill="#06628d">
  <animateMotion begin="-4.820184247297217s" dur="10s" repeatCount="indefinite">
    <mpath xlink:href="#path6"></mpath>
  </animateMotion>
</circle><path id="path7" d="M 740.5698880599255 327.1441710348763
c 0 25.031790127858496 -6.124799712135588 7.189982270767866 -13.314781982903455 7.189982270767866
S 713.9403240941185 352.1759611627348 713.9403240941185 327.1441710348763
s 6.124799712135588 -7.189982270767866 13.314781982903455 -7.189982270767866
S 740.5698880599255 302.11238090701784 740.5698880599255 327.1441710348763
z" fill="none" stroke="none"></path>
<circle cx="0" cy="0" r="6.163931627886977" fill="#2aa7c9">
  <animateMotion begin="-8.314779857093079s" dur="10s" repeatCount="indefinite">
    <mpath xlink:href="#path7"></mpath>
  </animateMotion>
</circle><path id="path8" d="M 25.095851043570896 611.4886726038959
c 0 27.611408411409755 -6.755982909174726 7.930936458596419 -14.686919367771145 7.930936458596419
S -4.277987691971392 639.1000810153057 -4.277987691971392 611.4886726038959
s 6.755982909174726 -7.930936458596419 14.686919367771145 -7.930936458596419
S 25.095851043570896 583.8772641924861 25.095851043570896 611.4886726038959
z" fill="none" stroke="none"></path>
<circle cx="0" cy="0" r="6.007595060107142" fill="#2aa7c9">
  <animateMotion begin="-6.313594583476987s" dur="10s" repeatCount="indefinite">
    <mpath xlink:href="#path8"></mpath>
  </animateMotion>
</circle><path id="path9" d="M 153.5067809995201 465.7751798677127
c 0 30.25665464723283 -7.403224009429309 8.690741228460494 -16.0939652378898 8.690741228460494
S 121.3188505237405 496.03183451494556 121.3188505237405 465.7751798677127
s 7.403224009429309 -8.690741228460494 16.0939652378898 -8.690741228460494
S 153.5067809995201 435.5185252204799 153.5067809995201 465.7751798677127
z" fill="none" stroke="none"></path>
<circle cx="0" cy="0" r="4.903856021045118" fill="#06628d">
  <animateMotion begin="-6.233084152109076s" dur="10s" repeatCount="indefinite">
    <mpath xlink:href="#path9"></mpath>
  </animateMotion>
</circle><path id="path10" d="M 594.2243311813841 430.7192371049714
c 0 25.50011230154373 -6.239389180164954 7.324500341932773 -13.563889522097728 7.324500341932773
S 567.0965521371886 456.2193494065151 567.0965521371886 430.7192371049714
s 6.239389180164954 -7.324500341932773 13.563889522097728 -7.324500341932773
S 594.2243311813841 405.2191248034277 594.2243311813841 430.7192371049714
z" fill="none" stroke="none"></path>
<circle cx="0" cy="0" r="7.844829508079245" fill="#2aa7c9">
  <animateMotion begin="-1.4080549428073885s" dur="10s" repeatCount="indefinite">
    <mpath xlink:href="#path10"></mpath>
  </animateMotion>
</circle><path id="path11" d="M 1561.2872864979934 168.02004070382452
c 0 26.075214534505374 -6.380105683974718 7.489689281187713 -13.869794965162432 7.489689281187713
S 1533.5476965676687 194.09525523832988 1533.5476965676687 168.02004070382452
s 6.380105683974718 -7.489689281187713 13.869794965162432 -7.489689281187713
S 1561.2872864979934 141.94482616931916 1561.2872864979934 168.02004070382452
z" fill="none" stroke="none"></path>
<circle cx="0" cy="0" r="5.735995523890811" fill="#04284d">
  <animateMotion begin="-9.680417862143436s" dur="10s" repeatCount="indefinite">
    <mpath xlink:href="#path11"></mpath>
  </animateMotion>
</circle><path id="path12" d="M 1817.3708451083965 566.6138245933727
c 0 25.05969103401209 -6.1316265295987025 7.19799636083326 -13.329622890431963 7.19799636083326
S 1790.7115993275327 591.6735156273847 1790.7115993275327 566.6138245933727
s 6.1316265295987025 -7.19799636083326 13.329622890431963 -7.19799636083326
S 1817.3708451083965 541.5541335593606 1817.3708451083965 566.6138245933727
z" fill="none" stroke="none"></path>
<circle cx="0" cy="0" r="5.068337916274484" fill="#06628d">
  <animateMotion begin="-2.3082868747807384s" dur="10s" repeatCount="indefinite">
    <mpath xlink:href="#path12"></mpath>
  </animateMotion>
</circle><path id="path13" d="M 1181.8627187459074 371.1394485175208
c 0 22.28761728444446 -5.453353165342794 6.401762411489367 -11.85511557683216 6.401762411489367
S 1158.1524875922432 393.4270658019653 1158.1524875922432 371.1394485175208
s 5.453353165342794 -6.401762411489367 11.85511557683216 -6.401762411489367
S 1181.8627187459074 348.8518312330763 1181.8627187459074 371.1394485175208
z" fill="none" stroke="none"></path>
<circle cx="0" cy="0" r="6.62319541707423" fill="#04284d">
  <animateMotion begin="-4.199469788310037s" dur="10s" repeatCount="indefinite">
    <mpath xlink:href="#path13"></mpath>
  </animateMotion>
</circle><path id="path14" d="M 50.486600951790194 596.484045027513
c 0 35.49650150023641 -8.685314196866354 10.19580362240833 -18.881117819274685 10.19580362240833
S 12.724365313240824 631.9805465277494 12.724365313240824 596.484045027513
s 8.685314196866354 -10.19580362240833 18.881117819274685 -10.19580362240833
S 50.486600951790194 560.9875435272767 50.486600951790194 596.484045027513
z" fill="none" stroke="none"></path>
<circle cx="0" cy="0" r="7.014391466578933" fill="#2aa7c9">
  <animateMotion begin="-1.9417401263064504s" dur="10s" repeatCount="indefinite">
    <mpath xlink:href="#path14"></mpath>
  </animateMotion>
</circle><path id="path15" d="M 449.67146333501313 392.9839146472539
c 0 34.37697047089956 -8.411386391815848 9.87423619908817 -18.28562259090402 9.87423619908817
S 413.10021815320505 427.3608851181535 413.10021815320505 392.9839146472539
s 8.411386391815848 -9.87423619908817 18.28562259090402 -9.87423619908817
S 449.67146333501313 358.6069441763544 449.67146333501313 392.9839146472539
z" fill="none" stroke="none"></path>
<circle cx="0" cy="0" r="5.684367066603477" fill="#06628d">
  <animateMotion begin="-5.417723451421206s" dur="10s" repeatCount="indefinite">
    <mpath xlink:href="#path15"></mpath>
  </animateMotion>
</circle><path id="path16" d="M 1217.4616924254174 872.1862799759592
c 0 30.956132925276318 -7.574372949801652 8.89165520194107 -16.466028151742723 8.89165520194107
S 1184.529636121932 903.1424129012355 1184.529636121932 872.1862799759592
s 7.574372949801652 -8.89165520194107 16.466028151742723 -8.89165520194107
S 1217.4616924254174 841.230147050683 1217.4616924254174 872.1862799759592
z" fill="none" stroke="none"></path>
<circle cx="0" cy="0" r="4.6077992076209835" fill="#04284d">
  <animateMotion begin="-8.409668879611367s" dur="10s" repeatCount="indefinite">
    <mpath xlink:href="#path16"></mpath>
  </animateMotion>
</circle><path id="path17" d="M 1521.7901698510616 226.74104290789182
c 0 32.719502268899014 -8.00583566153912 9.398154907024185 -17.403990568563305 9.398154907024185
S 1486.9821887139349 259.46054517679084 1486.9821887139349 226.74104290789182
s 8.00583566153912 -9.398154907024185 17.403990568563305 -9.398154907024185
S 1521.7901698510616 194.0215406389928 1521.7901698510616 226.74104290789182
z" fill="none" stroke="none"></path>
<circle cx="0" cy="0" r="4.062913118112237" fill="#04284d">
  <animateMotion begin="-2.2670671797473196s" dur="10s" repeatCount="indefinite">
    <mpath xlink:href="#path17"></mpath>
  </animateMotion>
</circle><path id="path18" d="M 472.5046448739547 835.599350424144
c 0 36.05116559306104 -8.821029879153233 10.355122032049449 -19.17615191120268 10.355122032049449
S 434.15234105154934 871.650516017205 434.15234105154934 835.599350424144
s 8.821029879153233 -10.355122032049449 19.17615191120268 -10.355122032049449
S 472.5046448739547 799.548184831083 472.5046448739547 835.599350424144
z" fill="none" stroke="none"></path>
<circle cx="0" cy="0" r="7.6777427848348525" fill="#2aa7c9">
  <animateMotion begin="-5.5082886323609825s" dur="10s" repeatCount="indefinite">
    <mpath xlink:href="#path18"></mpath>
  </animateMotion>
</circle><path id="path19" d="M 410.44931909082925 45.08763210267046
c 0 24.02835093025376 -5.879277355274857 6.901760373583528 -12.781037728858385 6.901760373583528
S 384.88724363311246 69.11598303292422 384.88724363311246 45.08763210267046
s 5.879277355274857 -6.901760373583528 12.781037728858385 -6.901760373583528
S 410.44931909082925 21.0592811724167 410.44931909082925 45.08763210267046
z" fill="none" stroke="none"></path>
<circle cx="0" cy="0" r="7.873235391383202" fill="#04284d">
  <animateMotion begin="-3.0919163801864546s" dur="10s" repeatCount="indefinite">
    <mpath xlink:href="#path19"></mpath>
  </animateMotion>
</circle><path id="path20" d="M 1041.2714078783256 824.7352058984792
c 0 19.409565364693606 -4.749148972212264 5.575087923901354 -10.324236896113618 5.575087923901354
S 1020.6229340860983 844.1447712631727 1020.6229340860983 824.7352058984792
s 4.749148972212264 -5.575087923901354 10.324236896113618 -5.575087923901354
S 1041.2714078783256 805.3256405337856 1041.2714078783256 824.7352058984792
z" fill="none" stroke="none"></path>
<circle cx="0" cy="0" r="4.626204140909846" fill="#2aa7c9">
  <animateMotion begin="-6.981899598559764s" dur="10s" repeatCount="indefinite">
    <mpath xlink:href="#path20"></mpath>
  </animateMotion>
</circle><path id="path21" d="M 956.8502592664878 119.20751164568121
c 0 22.565673636786798 -5.52138823027762 6.48162966163025 -12.00301789190787 6.48162966163025
S 932.844223482672 141.773185282468 932.844223482672 119.20751164568121
s 5.52138823027762 -6.48162966163025 12.00301789190787 -6.48162966163025
S 956.8502592664878 96.64183800889441 956.8502592664878 119.20751164568121
z" fill="none" stroke="none"></path>
<circle cx="0" cy="0" r="7.208389701008986" fill="#2aa7c9">
  <animateMotion begin="-2.8742863723018885s" dur="10s" repeatCount="indefinite">
    <mpath xlink:href="#path21"></mpath>
  </animateMotion>
</circle><path id="path22" d="M 349.5671873389541 634.2354577324861
c 0 30.911623578745456 -7.563482365012185 8.878870602405609 -16.442352967417794 8.878870602405609
S 316.68248140411856 665.1470813112315 316.68248140411856 634.2354577324861
s 7.563482365012185 -8.878870602405609 16.442352967417794 -8.878870602405609
S 349.5671873389541 603.3238341537407 349.5671873389541 634.2354577324861
z" fill="none" stroke="none"></path>
<circle cx="0" cy="0" r="6.023703561886778" fill="#06628d">
  <animateMotion begin="-3.1814668449758643s" dur="10s" repeatCount="indefinite">
    <mpath xlink:href="#path22"></mpath>
  </animateMotion>
</circle><path id="path23" d="M 1166.0296503251773 554.6630813112382
c 0 27.955300162766815 -6.840126635570602 8.029713876539404 -14.869840512110006 8.029713876539404
S 1136.2899693009574 582.618381474005 1136.2899693009574 554.6630813112382
s 6.840126635570602 -8.029713876539404 14.869840512110006 -8.029713876539404
S 1166.0296503251773 526.7077811484714 1166.0296503251773 554.6630813112382
z" fill="none" stroke="none"></path>
<circle cx="0" cy="0" r="6.089668530919511" fill="#2aa7c9">
  <animateMotion begin="-1.662727752481865s" dur="10s" repeatCount="indefinite">
    <mpath xlink:href="#path23"></mpath>
  </animateMotion>
</circle><path id="path24" d="M 1189.2789271138345 229.21854094881115
c 0 30.050530223542864 -7.352789310015807 8.631535276975079 -15.984324586990885 8.631535276975079
S 1157.3102779398528 259.269071172354 1157.3102779398528 229.21854094881115
s 7.352789310015807 -8.631535276975079 15.984324586990885 -8.631535276975079
S 1189.2789271138345 199.1680107252683 1189.2789271138345 229.21854094881115
z" fill="none" stroke="none"></path>
<circle cx="0" cy="0" r="6.496361247463315" fill="#04284d">
  <animateMotion begin="-1.8312937482514302s" dur="10s" repeatCount="indefinite">
    <mpath xlink:href="#path24"></mpath>
  </animateMotion>
</circle><path id="path25" d="M 908.2491944489365 726.8629390409686
c 0 23.161096094804577 -5.667076704047928 6.652655261273655 -12.319731965321584 6.652655261273655
S 883.6097305182933 750.0240351357731 883.6097305182933 726.8629390409686
s 5.667076704047928 -6.652655261273655 12.319731965321584 -6.652655261273655
S 908.2491944489365 703.7018429461641 908.2491944489365 726.8629390409686
z" fill="none" stroke="none"></path>
<circle cx="0" cy="0" r="5.255193803065134" fill="#06628d">
  <animateMotion begin="-3.77361397857376s" dur="10s" repeatCount="indefinite">
    <mpath xlink:href="#path25"></mpath>
  </animateMotion>
</circle><path id="path26" d="M 615.6973548091747 320.36329929986425
c 0 34.33996353446102 -8.402331503112801 9.86360654713242 -18.26593805024522 9.86360654713242
S 579.1654787086842 354.7032628343253 579.1654787086842 320.36329929986425
s 8.402331503112801 -9.86360654713242 18.26593805024522 -9.86360654713242
S 615.6973548091747 286.0233357654032 615.6973548091747 320.36329929986425
z" fill="none" stroke="none"></path>
<circle cx="0" cy="0" r="6.794177003398412" fill="#2aa7c9">
  <animateMotion begin="-9.813543411128665s" dur="10s" repeatCount="indefinite">
    <mpath xlink:href="#path26"></mpath>
  </animateMotion>
</circle><path id="path27" d="M 1027.5535486801941 953.9996238373383
c 0 21.719177715131654 -5.314266887744979 6.238487216048454 -11.552754103793433 6.238487216048454
S 1004.4480404726073 975.7188015524699 1004.4480404726073 953.9996238373383
s 5.314266887744979 -6.238487216048454 11.552754103793433 -6.238487216048454
S 1027.5535486801941 932.2804461222066 1027.5535486801941 953.9996238373383
z" fill="none" stroke="none"></path>
<circle cx="0" cy="0" r="7.136247315140846" fill="#2aa7c9">
  <animateMotion begin="-7.022847876236309s" dur="10s" repeatCount="indefinite">
    <mpath xlink:href="#path27"></mpath>
  </animateMotion>
</circle><path id="path28" d="M 1706.2062831771914 908.5198052127313
c 0 25.619193929250898 -6.268526174178411 7.358704639252918 -13.627230813431328 7.358704639252918
S 1678.9518215503285 934.1389991419821 1678.9518215503285 908.5198052127313
s 6.268526174178411 -7.358704639252918 13.627230813431328 -7.358704639252918
S 1706.2062831771914 882.9006112834804 1706.2062831771914 908.5198052127313
z" fill="none" stroke="none"></path>
<circle cx="0" cy="0" r="7.770751383408299" fill="#04284d">
  <animateMotion begin="-0.13139136596580947s" dur="10s" repeatCount="indefinite">
    <mpath xlink:href="#path28"></mpath>
  </animateMotion>
</circle><path id="path29" d="M 715.5796380153446 807.8730420564963
c 0 27.902180773650134 -6.827129338233543 8.014456179665464 -14.841585517899007 8.014456179665464
S 685.8964669795465 835.7752228301464 685.8964669795465 807.8730420564963
s 6.827129338233543 -8.014456179665464 14.841585517899007 -8.014456179665464
S 715.5796380153446 779.9708612828462 715.5796380153446 807.8730420564963
z" fill="none" stroke="none"></path>
<circle cx="0" cy="0" r="4.591869643567666" fill="#06628d">
  <animateMotion begin="-2.716682920879876s" dur="10s" repeatCount="indefinite">
    <mpath xlink:href="#path29"></mpath>
  </animateMotion>
</circle><path id="path30" d="M 1410.925893765011 321.48937876219344
c 0 21.51465672653169 -5.264224518193923 6.179741825705911 -11.443966343899834 6.179741825705911
S 1388.0379610772115 343.00403548872515 1388.0379610772115 321.48937876219344
s 5.264224518193923 -6.179741825705911 11.443966343899834 -6.179741825705911
S 1410.925893765011 299.9747220356617 1410.925893765011 321.48937876219344
z" fill="none" stroke="none"></path>
<circle cx="0" cy="0" r="5.890681955140618" fill="#06628d">
  <animateMotion begin="-5.541110830585286s" dur="10s" repeatCount="indefinite">
    <mpath xlink:href="#path30"></mpath>
  </animateMotion>
</circle><path id="path31" d="M 933.7606203486937 272.7933562740855
c 0 31.649541342681175 -7.744036711507095 9.090825704812678 -16.834862416319773 9.090825704812678
S 900.0908955160542 304.4428976167667 900.0908955160542 272.7933562740855
s 7.744036711507095 -9.090825704812678 16.834862416319773 -9.090825704812678
S 933.7606203486937 241.14381493140434 933.7606203486937 272.7933562740855
z" fill="none" stroke="none"></path>
<circle cx="0" cy="0" r="5.626768661512621" fill="#04284d">
  <animateMotion begin="-2.0613074748790727s" dur="10s" repeatCount="indefinite">
    <mpath xlink:href="#path31"></mpath>
  </animateMotion>
</circle><path id="path32" d="M 841.9147364146463 371.88255860451613
c 0 24.92106322893965 -6.097706960272467 7.1581777359720276 -13.255884696244495 7.1581777359720276
S 815.4029670221573 396.8036218334558 815.4029670221573 371.88255860451613
s 6.097706960272467 -7.1581777359720276 13.255884696244495 -7.1581777359720276
S 841.9147364146463 346.9614953755765 841.9147364146463 371.88255860451613
z" fill="none" stroke="none"></path>
<circle cx="0" cy="0" r="5.734004731675572" fill="#2aa7c9">
  <animateMotion begin="-4.556916333638887s" dur="10s" repeatCount="indefinite">
    <mpath xlink:href="#path32"></mpath>
  </animateMotion>
</circle><path id="path33" d="M 406.7060983960439 740.5377919113828
c 0 20.65460010884003 -5.053785133014049 5.932704286581711 -10.98648941959576 5.932704286581711
S 384.73311955685233 761.1923920202228 384.73311955685233 740.5377919113828
s 5.053785133014049 -5.932704286581711 10.98648941959576 -5.932704286581711
S 406.7060983960439 719.8831918025428 406.7060983960439 740.5377919113828
z" fill="none" stroke="none"></path>
<circle cx="0" cy="0" r="6.263283219300966" fill="#04284d">
  <animateMotion begin="-6.940043277168966s" dur="10s" repeatCount="indefinite">
    <mpath xlink:href="#path33"></mpath>
  </animateMotion>
</circle><path id="path34" d="M 1173.3481563548519 723.230518521163
c 0 20.608237033260917 -5.042440976223416 5.919387232957924 -10.96182820918134 5.919387232957924
S 1151.4244999364894 743.838755554424 1151.4244999364894 723.230518521163
s 5.042440976223416 -5.919387232957924 10.96182820918134 -5.919387232957924
S 1173.3481563548519 702.6222814879021 1173.3481563548519 723.230518521163
z" fill="none" stroke="none"></path>
<circle cx="0" cy="0" r="6.089426744402529" fill="#06628d">
  <animateMotion begin="-2.696807840813864s" dur="10s" repeatCount="indefinite">
    <mpath xlink:href="#path34"></mpath>
  </animateMotion>
</circle><path id="path35" d="M 316.5245549038995 643.7222196107114
c 0 22.98292077215844 -5.623480614464299 6.601477243066786 -12.224957857531084 6.601477243066786
S 292.07463918883735 666.7051403828698 292.07463918883735 643.7222196107114
s 5.623480614464299 -6.601477243066786 12.224957857531084 -6.601477243066786
S 316.5245549038995 620.7392988385529 316.5245549038995 643.7222196107114
z" fill="none" stroke="none"></path>
<circle cx="0" cy="0" r="7.118096578203297" fill="#2aa7c9">
  <animateMotion begin="-5.801655174568894s" dur="10s" repeatCount="indefinite">
    <mpath xlink:href="#path35"></mpath>
  </animateMotion>
</circle><path id="path36" d="M 890.5090627988733 98.24035694697564
c 0 37.516872324175374 -9.17966024953227 10.776122901624841 -19.95578315115711 10.776122901624841
S 850.5974964965591 135.757229271151 850.5974964965591 98.24035694697564
s 9.17966024953227 -10.776122901624841 19.95578315115711 -10.776122901624841
S 890.5090627988733 60.723484622800264 890.5090627988733 98.24035694697564
z" fill="none" stroke="none"></path>
<circle cx="0" cy="0" r="4.0143177393484075" fill="#04284d">
  <animateMotion begin="-1.013140030853359s" dur="10s" repeatCount="indefinite">
    <mpath xlink:href="#path36"></mpath>
  </animateMotion>
</circle><path id="path37" d="M 739.8029465547166 136.96306033881703
c 0 27.67642301464812 -6.771890737626667 7.949610865909566 -14.721501603536232 7.949610865909566
S 710.3599433476442 164.63948335346515 710.3599433476442 136.96306033881703
s 6.771890737626667 -7.949610865909566 14.721501603536232 -7.949610865909566
S 739.8029465547166 109.28663732416891 739.8029465547166 136.96306033881703
z" fill="none" stroke="none"></path>
<circle cx="0" cy="0" r="4.556184773252511" fill="#04284d">
  <animateMotion begin="-1.771386184553343s" dur="10s" repeatCount="indefinite">
    <mpath xlink:href="#path37"></mpath>
  </animateMotion>
</circle><path id="path38" d="M 1275.3922577790727 299.11969353227295
c 0 23.76697329235376 -5.81532325238443 6.826683818016506 -12.642007070400936 6.826683818016506
S 1250.1082436382708 322.88666682462673 1250.1082436382708 299.11969353227295
s 5.81532325238443 -6.826683818016506 12.642007070400936 -6.826683818016506
S 1275.3922577790727 275.35272023991917 1275.3922577790727 299.11969353227295
z" fill="none" stroke="none"></path>
<circle cx="0" cy="0" r="4.8358905406597446" fill="#04284d">
  <animateMotion begin="-8.225379234723754s" dur="10s" repeatCount="indefinite">
    <mpath xlink:href="#path38"></mpath>
  </animateMotion>
</circle><path id="path39" d="M 1790.024698427202 154.99981699194768
c 0 36.090801603956166 -8.830728052031827 10.366506843689537 -19.197234895721362 10.366506843689537
S 1751.6302286357595 191.09061859590383 1751.6302286357595 154.99981699194768
s 8.830728052031827 -10.366506843689537 19.197234895721362 -10.366506843689537
S 1790.024698427202 118.90901538799152 1790.024698427202 154.99981699194768
z" fill="none" stroke="none"></path>
<circle cx="0" cy="0" r="4.016664970026046" fill="#06628d">
  <animateMotion begin="-3.938931974088702s" dur="10s" repeatCount="indefinite">
    <mpath xlink:href="#path39"></mpath>
  </animateMotion>
</circle><path id="path40" d="M 1298.1380442163725 201.2001493947651
c 0 35.585557619747156 -8.707104523980686 10.221383571629502 -18.928488095610188 10.221383571629502
S 1260.281068025152 236.78570701451227 1260.281068025152 201.2001493947651
s 8.707104523980686 -10.221383571629502 18.928488095610188 -10.221383571629502
S 1298.1380442163725 165.61459177501794 1298.1380442163725 201.2001493947651
z" fill="none" stroke="none"></path>
<circle cx="0" cy="0" r="4.5847962260195825" fill="#04284d">
  <animateMotion begin="-9.78008674890277s" dur="10s" repeatCount="indefinite">
    <mpath xlink:href="#path40"></mpath>
  </animateMotion>
</circle><path id="path41" d="M 1560.3417658806131 586.0928339105055
c 0 32.224215718587736 -7.884648526888487 9.255891748956051 -17.140540275844536 9.255891748956051
S 1526.060685328924 618.3170496290933 1526.060685328924 586.0928339105055
s 7.884648526888487 -9.255891748956051 17.140540275844536 -9.255891748956051
S 1560.3417658806131 553.8686181919178 1560.3417658806131 586.0928339105055
z" fill="none" stroke="none"></path>
<circle cx="0" cy="0" r="4.673353426026297" fill="#2aa7c9">
  <animateMotion begin="-8.634687104321362s" dur="10s" repeatCount="indefinite">
    <mpath xlink:href="#path41"></mpath>
  </animateMotion>
</circle><path id="path42" d="M 796.7936610623973 210.89715163297913
c 0 35.61203774852393 -8.713583704426068 10.228989566065385 -18.942573270491454 10.228989566065385
S 758.9085145214143 246.50918938150306 758.9085145214143 210.89715163297913
s 8.713583704426068 -10.228989566065385 18.942573270491454 -10.228989566065385
S 796.7936610623973 175.2851138844552 796.7936610623973 210.89715163297913
z" fill="none" stroke="none"></path>
<circle cx="0" cy="0" r="5.902828665080934" fill="#2aa7c9">
  <animateMotion begin="-9.373295003162582s" dur="10s" repeatCount="indefinite">
    <mpath xlink:href="#path42"></mpath>
  </animateMotion>
</circle><path id="path43" d="M 1902.9539329287686 122.16216240741547
c 0 29.872914614394173 -7.309330171607083 8.580518027538751 -15.889848199145835 8.580518027538751
S 1871.1742365304767 152.03507702180963 1871.1742365304767 122.16216240741547
s 7.309330171607083 -8.580518027538751 15.889848199145835 -8.580518027538751
S 1902.9539329287686 92.28924779302129 1902.9539329287686 122.16216240741547
z" fill="none" stroke="none"></path>
<circle cx="0" cy="0" r="6.688731866086919" fill="#2aa7c9">
  <animateMotion begin="-3.8249892158971277s" dur="10s" repeatCount="indefinite">
    <mpath xlink:href="#path43"></mpath>
  </animateMotion>
</circle><path id="path44" d="M 1489.643461409206 5.767397081580736
c 0 24.977454719135544 -6.111504878086356 7.174375291666593 -13.285880169752948 7.174375291666593
S 1463.0717010697 30.74485180071628 1463.0717010697 5.767397081580736
s 6.111504878086356 -7.174375291666593 13.285880169752948 -7.174375291666593
S 1489.643461409206 -19.210057637554808 1489.643461409206 5.767397081580736
z" fill="none" stroke="none"></path>
<circle cx="0" cy="0" r="4.452701912711074" fill="#04284d">
  <animateMotion begin="-6.358155495076073s" dur="10s" repeatCount="indefinite">
    <mpath xlink:href="#path44"></mpath>
  </animateMotion>
</circle><path id="path45" d="M 981.1229035922713 847.6717688879078
c 0 31.613439456303333 -7.735203271223155 9.080456014044575 -16.81565928526773 9.080456014044575
S 947.4915850217358 879.2852083442111 947.4915850217358 847.6717688879078
s 7.735203271223155 -9.080456014044575 16.81565928526773 -9.080456014044575
S 981.1229035922713 816.0583294316044 981.1229035922713 847.6717688879078
z" fill="none" stroke="none"></path>
<circle cx="0" cy="0" r="5.58170596996225" fill="#2aa7c9">
  <animateMotion begin="-6.119284616506803s" dur="10s" repeatCount="indefinite">
    <mpath xlink:href="#path45"></mpath>
  </animateMotion>
</circle><path id="path46" d="M 1316.9053988182102 577.1968847609146
c 0 35.712655947565196 -8.738203050999994 10.257890538130429 -18.996093589130425 10.257890538130429
S 1278.9132116399494 612.9095407084798 1278.9132116399494 577.1968847609146
s 8.738203050999994 -10.257890538130429 18.996093589130425 -10.257890538130429
S 1316.9053988182102 541.4842288133494 1316.9053988182102 577.1968847609146
z" fill="none" stroke="none"></path>
<circle cx="0" cy="0" r="7.145054436087257" fill="#04284d">
  <animateMotion begin="-0.4671791116368884s" dur="10s" repeatCount="indefinite">
    <mpath xlink:href="#path46"></mpath>
  </animateMotion>
</circle><path id="path47" d="M 1898.4957085891335 353.6121273552982
c 0 27.079822847843513 -6.625914101068093 7.7782469882103715 -14.404161089278464 7.7782469882103715
S 1869.6873864105767 380.6919502031417 1869.6873864105767 353.6121273552982
s 6.625914101068093 -7.7782469882103715 14.404161089278464 -7.7782469882103715
S 1898.4957085891335 326.5323045074547 1898.4957085891335 353.6121273552982
z" fill="none" stroke="none"></path>
<circle cx="0" cy="0" r="6.247532740183071" fill="#2aa7c9">
  <animateMotion begin="-4.779800002585734s" dur="10s" repeatCount="indefinite">
    <mpath xlink:href="#path47"></mpath>
  </animateMotion>
</circle><path id="path48" d="M 47.45949728543731 154.55253072529476
c 0 33.6926112549561 -8.243936796425428 9.6776649349342 -17.921601731359626 9.6776649349342
S 11.61629382271806 188.24514198025085 11.61629382271806 154.55253072529476
s 8.243936796425428 -9.6776649349342 17.921601731359626 -9.6776649349342
S 47.45949728543731 120.85991947033867 47.45949728543731 154.55253072529476
z" fill="none" stroke="none"></path>
<circle cx="0" cy="0" r="4.5461093197998235" fill="#06628d">
  <animateMotion begin="-3.913462532057219s" dur="10s" repeatCount="indefinite">
    <mpath xlink:href="#path48"></mpath>
  </animateMotion>
</circle><path id="path49" d="M 721.2809286313393 900.0444043143764
c 0 31.852629464695312 -7.793728486042469 9.149159527093335 -16.942888013135804 9.149159527093335
S 687.3951526050678 931.8970337790716 687.3951526050678 900.0444043143764
s 7.793728486042469 -9.149159527093335 16.942888013135804 -9.149159527093335
S 721.2809286313393 868.1917748496811 721.2809286313393 900.0444043143764
z" fill="none" stroke="none"></path>
<circle cx="0" cy="0" r="6.132002722862505" fill="#2aa7c9">
  <animateMotion begin="-1.5137870062842818s" dur="10s" repeatCount="indefinite">
    <mpath xlink:href="#path49"></mpath>
  </animateMotion>
</circle><path id="path50" d="M 413.9567901479377 189.5749588088497
c 0 20.068069114334733 -4.910272230103179 5.764232617947211 -10.67450484805039 5.764232617947211
S 392.6077804518369 209.64302792318443 392.6077804518369 189.5749588088497
s 4.910272230103179 -5.764232617947211 10.67450484805039 -5.764232617947211
S 413.9567901479377 169.50688969451494 413.9567901479377 189.5749588088497
z" fill="none" stroke="none"></path>
<circle cx="0" cy="0" r="6.756814959228736" fill="#06628d">
  <animateMotion begin="-1.1968351686378642s" dur="10s" repeatCount="indefinite">
    <mpath xlink:href="#path50"></mpath>
  </animateMotion>
</circle><path id="path51" d="M 1298.4090270616207 364.8797831314873
c 0 23.252559359245588 -5.68945601343243 6.678926624464158 -12.36838263789659 6.678926624464158
S 1273.6722617858277 388.13234249073287 1273.6722617858277 364.8797831314873
s 5.68945601343243 -6.678926624464158 12.36838263789659 -6.678926624464158
S 1298.4090270616207 341.6272237722417 1298.4090270616207 364.8797831314873
z" fill="none" stroke="none"></path>
<circle cx="0" cy="0" r="5.6813921184756335" fill="#2aa7c9">
  <animateMotion begin="-2.3566043000486148s" dur="10s" repeatCount="indefinite">
    <mpath xlink:href="#path51"></mpath>
  </animateMotion>
</circle><path id="path52" d="M 1377.8544376888376 793.4247870277976
c 0 29.780441299149995 -7.286703722132445 8.553956543372871 -15.840660265505315 8.553956543372871
S 1346.1731171578272 823.2052283269476 1346.1731171578272 793.4247870277976
s 7.286703722132445 -8.553956543372871 15.840660265505315 -8.553956543372871
S 1377.8544376888376 763.6443457286476 1377.8544376888376 793.4247870277976
z" fill="none" stroke="none"></path>
<circle cx="0" cy="0" r="4.437490963581443" fill="#06628d">
  <animateMotion begin="-0.4125647853781045s" dur="10s" repeatCount="indefinite">
    <mpath xlink:href="#path52"></mpath>
  </animateMotion>
</circle></g>
</svg>